<svg version="1.2" xmlns="http://www.w3.org/2000/svg" viewBox="0 0 1122 1122" width="1122" height="1122">
	<defs>
		<linearGradient id="g1" x2="1" gradientUnits="userSpaceOnUse" gradientTransform="matrix(604.304,0,0,594.187,326.198,330.192)">
			<stop offset="0" stop-color="#8ac8fa"/>
			<stop offset=".995" stop-color="#d96569"/>
		</linearGradient>
		<linearGradient id="g2" x2="1" gradientUnits="userSpaceOnUse" gradientTransform="matrix(374.309,0,0,366.834,335.386,337.224)">
			<stop offset="0" stop-color="#91c5c8"/>
			<stop offset="1" stop-color="#9bbce3"/>
		</linearGradient>
	</defs>
	<style>
		.s0 { fill: #5d75b6 } 
		.s1 { fill: url(#g1) } 
		.s2 { fill: url(#g2) } 
	</style>
	<g id="Alphabet">
		<g id="&lt;Group&gt;">
			<path id="&lt;Compound Path&gt;" class="s0" d="m584.75 208.72q65.21 0 118.48 25.12 53.27 25.12 88.72 68.23 35.46 43.13 50.36 100.89 14.9 57.77 3.39 123.07-11.52 65.31-46.79 123.08-35.28 57.77-85.94 100.89-50.66 43.12-112.78 68.23-62.13 25.12-127.34 25.12-65.22 0-118.49-25.12-53.27-25.11-88.72-68.23-35.46-43.12-50.36-100.89-14.89-57.77-3.37-123.08 11.51-65.3 46.78-123.07 35.27-57.76 85.93-100.89 50.66-43.11 112.79-68.23 62.12-25.12 127.34-25.12zm-22.02 127.26q-39.36 0.01-76.75 15.05-37.4 15.03-67.84 40.51-30.45 25.47-51.63 60.15-21.18 34.68-28.1 73.93-6.93 39.26 2.03 73.94 8.95 34.66 30.34 60.56 21.38 25.91 53.48 40.94 32.09 15.03 71.45 15.03 39.34 0 76.75-15.03 37.38-15.03 67.5-40.94 30.09-25.9 51.28-60.56 21.19-34.68 28.11-73.94 6.92-39.25-2.04-73.93-8.96-34.68-30-60.15-21.05-25.48-53.13-40.51-32.1-15.04-71.45-15.05z"/>
			<path id="&lt;Path&gt;" class="s1" d="m922.1 483.99q-14.9-57.76-50.36-100.89-25.63-31.15-60.58-52.91 20.66 33.38 31.15 74.01 14.9 57.77 3.39 123.08-11.52 65.3-46.79 123.07-35.28 57.77-85.94 100.89-50.66 43.12-112.78 68.23-62.13 25.12-127.34 25.12-65.22 0-118.49-25.12-14.76-6.97-28.16-15.33 8.71 14.09 19.23 26.89 35.45 43.12 88.72 68.23 53.26 25.12 118.49 25.12 65.21 0 127.33-25.12 62.13-25.11 112.79-68.23 50.66-43.12 85.93-100.89 35.27-57.77 46.8-123.07 11.5-65.31-3.39-123.08z"/>
			<path id="&lt;Path&gt;" class="s2" d="m418.19 606.65q6.92-39.25 28.11-73.93 21.18-34.67 51.63-60.15 30.44-25.48 67.84-40.51 37.39-15.04 76.75-15.05 36.75 0.01 67.17 13.13-8.59-20.66-22.38-37.36-21.05-25.47-53.13-40.51-32.1-15.04-71.45-15.05-39.36 0.01-76.75 15.05-37.4 15.04-67.84 40.51-30.45 25.48-51.63 60.15-21.18 34.68-28.1 73.93-6.93 39.26 2.03 73.94 8.95 34.67 30.34 60.57 21.38 25.9 53.49 40.93 1.93 0.91 3.9 1.76-4.76-11.18-7.94-23.47-8.96-34.68-2.04-73.94z"/>
		</g>
	</g>
</svg>